<mxfile host="app.diagrams.net" modified="2024-02-28T15:31:28.380Z" agent="Mozilla/5.0 (Windows NT 10.0; Win64; x64) AppleWebKit/537.36 (KHTML, like Gecko) Chrome/122.0.0.0 Safari/537.36" etag="82cUhkMTEkjBxeueuCdV" version="23.1.7" type="device">
  <diagram name="Page-1" id="qH60HfHCOHrNB4H6qqeN">
    <mxGraphModel dx="953" dy="770" grid="1" gridSize="10" guides="1" tooltips="1" connect="1" arrows="1" fold="1" page="1" pageScale="1" pageWidth="850" pageHeight="1100" math="0" shadow="0">
      <root>
        <mxCell id="0" />
        <mxCell id="1" parent="0" />
        <mxCell id="09jx5m0kj8azKOOGwZa--1" value="First slide" style="html=1;shadow=0;dashed=0;strokeColor=none;strokeWidth=1;fillColor=#777777;fontColor=#555555;whiteSpace=wrap;align=center;verticalAlign=middle;fontStyle=0;fontSize=40;" vertex="1" parent="1">
          <mxGeometry x="30" y="130" width="800" height="300" as="geometry" />
        </mxCell>
        <mxCell id="09jx5m0kj8azKOOGwZa--2" value="Navbar" style="html=1;shadow=0;dashed=0;fillColor=#343A40;strokeColor=none;fontSize=16;fontColor=#ffffff;align=left;spacing=15;" vertex="1" parent="1">
          <mxGeometry x="30" y="70" width="800" height="60" as="geometry" />
        </mxCell>
        <mxCell id="09jx5m0kj8azKOOGwZa--3" value="Home" style="fillColor=none;strokeColor=none;fontSize=14;fontColor=#ffffff;align=center;" vertex="1" parent="09jx5m0kj8azKOOGwZa--2">
          <mxGeometry width="70" height="40" relative="1" as="geometry">
            <mxPoint x="70" y="10" as="offset" />
          </mxGeometry>
        </mxCell>
        <mxCell id="09jx5m0kj8azKOOGwZa--4" value="Features" style="fillColor=none;strokeColor=none;fontSize=14;fontColor=#9A9DA0;align=center;" vertex="1" parent="09jx5m0kj8azKOOGwZa--2">
          <mxGeometry width="70" height="40" relative="1" as="geometry">
            <mxPoint x="140" y="10" as="offset" />
          </mxGeometry>
        </mxCell>
        <mxCell id="09jx5m0kj8azKOOGwZa--5" value="Pricing" style="fillColor=none;strokeColor=none;fontSize=14;fontColor=#9A9DA0;align=center;spacingRight=0;" vertex="1" parent="09jx5m0kj8azKOOGwZa--2">
          <mxGeometry width="80" height="40" relative="1" as="geometry">
            <mxPoint x="210" y="10" as="offset" />
          </mxGeometry>
        </mxCell>
        <mxCell id="09jx5m0kj8azKOOGwZa--6" value="About" style="fillColor=none;strokeColor=none;fontSize=14;fontColor=#9A9DA0;align=center;" vertex="1" parent="09jx5m0kj8azKOOGwZa--2">
          <mxGeometry width="80" height="40" relative="1" as="geometry">
            <mxPoint x="290" y="10" as="offset" />
          </mxGeometry>
        </mxCell>
        <mxCell id="09jx5m0kj8azKOOGwZa--7" value="Search" style="html=1;shadow=0;dashed=0;shape=mxgraph.bootstrap.rrect;rSize=5;fontSize=14;fontColor=#1CA5B8;strokeColor=#1CA5B8;fillColor=none;" vertex="1" parent="09jx5m0kj8azKOOGwZa--2">
          <mxGeometry x="1" width="70" height="40" relative="1" as="geometry">
            <mxPoint x="-80" y="10" as="offset" />
          </mxGeometry>
        </mxCell>
        <mxCell id="09jx5m0kj8azKOOGwZa--8" value="Search" style="html=1;shadow=0;dashed=0;shape=mxgraph.bootstrap.rrect;rSize=5;fontSize=14;fontColor=#6C767D;strokeColor=#CED4DA;fillColor=#ffffff;align=left;spacing=10;" vertex="1" parent="09jx5m0kj8azKOOGwZa--2">
          <mxGeometry x="1" width="180" height="40" relative="1" as="geometry">
            <mxPoint x="-270" y="10" as="offset" />
          </mxGeometry>
        </mxCell>
        <mxCell id="09jx5m0kj8azKOOGwZa--9" value="Email address" style="fillColor=none;strokeColor=none;align=left;fontSize=14;" vertex="1" parent="1">
          <mxGeometry x="30" y="430" width="260" height="40" as="geometry" />
        </mxCell>
        <mxCell id="09jx5m0kj8azKOOGwZa--10" value="name@example.com" style="html=1;shadow=0;dashed=0;shape=mxgraph.bootstrap.rrect;rSize=5;fillColor=none;strokeColor=#999999;align=left;spacing=15;fontSize=14;fontColor=#6C767D;" vertex="1" parent="1">
          <mxGeometry width="800" height="30" relative="1" as="geometry">
            <mxPoint x="30" y="470" as="offset" />
          </mxGeometry>
        </mxCell>
        <mxCell id="09jx5m0kj8azKOOGwZa--11" value="Example select" style="fillColor=none;strokeColor=none;align=left;fontSize=14;" vertex="1" parent="1">
          <mxGeometry width="260" height="40" relative="1" as="geometry">
            <mxPoint x="30" y="510" as="offset" />
          </mxGeometry>
        </mxCell>
        <mxCell id="09jx5m0kj8azKOOGwZa--12" value="1" style="html=1;shadow=0;dashed=0;shape=mxgraph.bootstrap.rrect;rSize=5;fillColor=none;strokeColor=#999999;align=left;spacing=15;fontSize=14;fontColor=#6C767D;" vertex="1" parent="1">
          <mxGeometry width="800" height="30" relative="1" as="geometry">
            <mxPoint x="30" y="550" as="offset" />
          </mxGeometry>
        </mxCell>
        <mxCell id="09jx5m0kj8azKOOGwZa--13" value="Example multiple select" style="fillColor=none;strokeColor=none;align=left;fontSize=14;" vertex="1" parent="1">
          <mxGeometry width="260" height="40" relative="1" as="geometry">
            <mxPoint x="30" y="590" as="offset" />
          </mxGeometry>
        </mxCell>
        <mxCell id="09jx5m0kj8azKOOGwZa--14" value="" style="html=1;shadow=0;dashed=0;shape=mxgraph.bootstrap.rrect;rSize=5;fillColor=none;strokeColor=#999999;align=left;spacing=15;fontSize=14;fontColor=#6C767D;" vertex="1" parent="1">
          <mxGeometry width="800" height="100" relative="1" as="geometry">
            <mxPoint x="30" y="630" as="offset" />
          </mxGeometry>
        </mxCell>
        <mxCell id="09jx5m0kj8azKOOGwZa--15" value="" style="html=1;shadow=0;dashed=0;shape=mxgraph.bootstrap.rightButton;rSize=5;fillColor=#F1F1F1;strokeColor=#999999;" vertex="1" parent="09jx5m0kj8azKOOGwZa--14">
          <mxGeometry x="1" width="20" height="100" relative="1" as="geometry">
            <mxPoint x="-20" as="offset" />
          </mxGeometry>
        </mxCell>
        <mxCell id="09jx5m0kj8azKOOGwZa--16" value="" style="fillColor=#C1C1C1;strokeColor=none;" vertex="1" parent="09jx5m0kj8azKOOGwZa--15">
          <mxGeometry width="16" height="45" relative="1" as="geometry">
            <mxPoint x="2" y="20" as="offset" />
          </mxGeometry>
        </mxCell>
        <mxCell id="09jx5m0kj8azKOOGwZa--17" value="" style="shape=triangle;direction=north;fillColor=#C1C1C1;strokeColor=none;perimeter=none;" vertex="1" parent="09jx5m0kj8azKOOGwZa--15">
          <mxGeometry width="10" height="5" relative="1" as="geometry">
            <mxPoint x="5" y="7.5" as="offset" />
          </mxGeometry>
        </mxCell>
        <mxCell id="09jx5m0kj8azKOOGwZa--18" value="" style="shape=triangle;direction=south;fillColor=#505050;strokeColor=none;perimeter=none;" vertex="1" parent="09jx5m0kj8azKOOGwZa--15">
          <mxGeometry y="1" width="10" height="5" relative="1" as="geometry">
            <mxPoint x="5" y="-12.5" as="offset" />
          </mxGeometry>
        </mxCell>
        <mxCell id="09jx5m0kj8azKOOGwZa--19" value="1" style="fillColor=none;strokeColor=none;align=left;spacing=15;fontSize=14;fontColor=#6C767D;" vertex="1" parent="09jx5m0kj8azKOOGwZa--14">
          <mxGeometry width="780" height="20" relative="1" as="geometry">
            <mxPoint y="10" as="offset" />
          </mxGeometry>
        </mxCell>
        <mxCell id="09jx5m0kj8azKOOGwZa--20" value="2" style="fillColor=none;strokeColor=none;align=left;spacing=15;fontSize=14;fontColor=#6C767D;" vertex="1" parent="09jx5m0kj8azKOOGwZa--14">
          <mxGeometry width="780" height="20" relative="1" as="geometry">
            <mxPoint y="30" as="offset" />
          </mxGeometry>
        </mxCell>
        <mxCell id="09jx5m0kj8azKOOGwZa--21" value="3" style="fillColor=none;strokeColor=none;align=left;spacing=15;fontSize=14;fontColor=#6C767D;" vertex="1" parent="09jx5m0kj8azKOOGwZa--14">
          <mxGeometry width="780" height="20" relative="1" as="geometry">
            <mxPoint y="50" as="offset" />
          </mxGeometry>
        </mxCell>
        <mxCell id="09jx5m0kj8azKOOGwZa--22" value="4" style="fillColor=none;strokeColor=none;align=left;spacing=15;fontSize=14;fontColor=#6C767D;" vertex="1" parent="09jx5m0kj8azKOOGwZa--14">
          <mxGeometry width="780" height="20" relative="1" as="geometry">
            <mxPoint y="70" as="offset" />
          </mxGeometry>
        </mxCell>
        <mxCell id="09jx5m0kj8azKOOGwZa--23" value="Example textarea" style="fillColor=none;strokeColor=none;align=left;fontSize=14;" vertex="1" parent="1">
          <mxGeometry width="260" height="40" relative="1" as="geometry">
            <mxPoint x="30" y="740" as="offset" />
          </mxGeometry>
        </mxCell>
        <mxCell id="09jx5m0kj8azKOOGwZa--24" value="" style="html=1;shadow=0;dashed=0;shape=mxgraph.bootstrap.rrect;rSize=5;fillColor=none;strokeColor=#999999;align=left;spacing=15;fontSize=14;fontColor=#6C767D;" vertex="1" parent="1">
          <mxGeometry width="800" height="90" relative="1" as="geometry">
            <mxPoint x="30" y="780" as="offset" />
          </mxGeometry>
        </mxCell>
        <mxCell id="09jx5m0kj8azKOOGwZa--25" value="" style="html=1;shadow=0;dashed=0;shape=mxgraph.bootstrap.rrect;rSize=5;strokeColor=#DFDFDF;html=1;whiteSpace=wrap;fillColor=#ffffff;" vertex="1" parent="1">
          <mxGeometry x="40" y="880" width="780" height="360" as="geometry" />
        </mxCell>
        <mxCell id="09jx5m0kj8azKOOGwZa--26" value="&lt;b&gt;&lt;font style=&quot;font-size: 20px&quot;&gt;Card title&lt;/font&gt;&lt;/b&gt;&lt;br&gt;&lt;br&gt;This is a wider card with supporting text below as a natural lead-in to additional content. This content is a little bit longer.&lt;br&gt;&lt;br&gt;&lt;font color=&quot;#999999&quot; style=&quot;font-size: 12px&quot;&gt;Last udated 3 mind ago&lt;/font&gt;" style="html=1;shadow=0;dashed=0;shape=mxgraph.bootstrap.leftButton;rSize=5;strokeColor=#DFDFDF;html=1;whiteSpace=wrap;fillColor=#ffffff;fontColor=#000000;verticalAlign=top;align=left;spacing=20;spacingBottom=0;fontSize=14;spacingTop=160;" vertex="1" parent="09jx5m0kj8azKOOGwZa--25">
          <mxGeometry width="260" height="360" relative="1" as="geometry" />
        </mxCell>
        <mxCell id="09jx5m0kj8azKOOGwZa--27" value="Image cap" style="html=1;shadow=0;dashed=0;shape=mxgraph.basic.corner_round_rect;dx=2;perimeter=none;whiteSpace=wrap;fillColor=#868E96;strokeColor=#DFDFDF;fontColor=#DEE2E6;resizeWidth=1;fontSize=18;" vertex="1" parent="09jx5m0kj8azKOOGwZa--26">
          <mxGeometry width="260" height="160" relative="1" as="geometry" />
        </mxCell>
        <mxCell id="09jx5m0kj8azKOOGwZa--28" value="&lt;b&gt;&lt;font style=&quot;font-size: 20px&quot;&gt;Card title&lt;/font&gt;&lt;/b&gt;&lt;br&gt;&lt;br&gt;This card has supporting text below as a natural lead-in to additional content.&lt;br&gt;&lt;br&gt;&lt;font color=&quot;#999999&quot; style=&quot;font-size: 12px&quot;&gt;Last udated 3 mind ago&lt;/font&gt;" style="html=1;shadow=0;dashed=0;strokeColor=#DFDFDF;html=1;whiteSpace=wrap;fillColor=#ffffff;fontColor=#000000;verticalAlign=top;align=left;spacing=20;spacingBottom=0;fontSize=14;spacingTop=160;" vertex="1" parent="09jx5m0kj8azKOOGwZa--25">
          <mxGeometry width="260" height="360" relative="1" as="geometry">
            <mxPoint x="260" as="offset" />
          </mxGeometry>
        </mxCell>
        <mxCell id="09jx5m0kj8azKOOGwZa--29" value="Image cap" style="html=1;shadow=0;dashed=0;perimeter=none;whiteSpace=wrap;fillColor=#868E96;strokeColor=#DFDFDF;fontColor=#DEE2E6;resizeWidth=1;fontSize=18;" vertex="1" parent="09jx5m0kj8azKOOGwZa--28">
          <mxGeometry width="260" height="160" relative="1" as="geometry" />
        </mxCell>
        <mxCell id="09jx5m0kj8azKOOGwZa--30" value="&lt;b&gt;&lt;font style=&quot;font-size: 20px&quot;&gt;Card title&lt;/font&gt;&lt;/b&gt;&lt;br&gt;&lt;br&gt;This is a wider card with supporting text below as a natural lead-in to additional content. This card has even longer content than the first to show that equal height action.&lt;br&gt;&lt;br&gt;&lt;font color=&quot;#999999&quot; style=&quot;font-size: 12px&quot;&gt;Last udated 3 mind ago&lt;/font&gt;" style="html=1;shadow=0;dashed=0;shape=mxgraph.bootstrap.rightButton;rSize=5;strokeColor=#DFDFDF;html=1;whiteSpace=wrap;fillColor=#ffffff;fontColor=#000000;verticalAlign=top;align=left;spacing=20;spacingBottom=0;fontSize=14;spacingTop=160;" vertex="1" parent="09jx5m0kj8azKOOGwZa--25">
          <mxGeometry x="1" width="260" height="360" relative="1" as="geometry">
            <mxPoint x="-260" as="offset" />
          </mxGeometry>
        </mxCell>
        <mxCell id="09jx5m0kj8azKOOGwZa--31" value="Image cap" style="html=1;shadow=0;dashed=0;shape=mxgraph.basic.corner_round_rect;dx=2;flipH=1;perimeter=none;whiteSpace=wrap;fillColor=#868E96;strokeColor=#DFDFDF;fontColor=#DEE2E6;resizeWidth=1;fontSize=18;" vertex="1" parent="09jx5m0kj8azKOOGwZa--30">
          <mxGeometry width="260" height="160" relative="1" as="geometry" />
        </mxCell>
        <UserObject label="&lt;font style=&quot;font-size: 24px;&quot;&gt;&lt;b&gt;Unique System Skills Pvt.Ltd.LLC&lt;/b&gt;&lt;/font&gt;" tooltip="Specific Instructions" id="09jx5m0kj8azKOOGwZa--32">
          <mxCell style="text;html=1;align=center;verticalAlign=middle;whiteSpace=wrap;rounded=1;fillColor=#dae8fc;strokeColor=#6c8ebf;gradientColor=#A9C4EB;shadow=1;glass=1;arcSize=25;" vertex="1" parent="1">
            <mxGeometry x="140" y="10" width="550" height="40" as="geometry" />
          </mxCell>
        </UserObject>
      </root>
    </mxGraphModel>
  </diagram>
</mxfile>
